<svg width="81" height="81" viewBox="0 0 81 81" fill="none" xmlns="http://www.w3.org/2000/svg">
<path d="M50.2148 70.3418V43.5449C50.2148 42.6566 49.8619 41.8046 49.2338 41.1764C48.6056 40.5482 47.7536 40.1953 46.8652 40.1953H33.4668C32.5784 40.1953 31.7264 40.5482 31.0983 41.1764C30.4701 41.8046 30.1172 42.6566 30.1172 43.5449V70.3418" stroke="#6B6B6B" stroke-width="5" stroke-linecap="round" stroke-linejoin="round"/>
<path d="M10.0781 33.496C10.0779 32.5215 10.2903 31.5587 10.7004 30.6747C11.1106 29.7907 11.7087 29.0068 12.453 28.3778L35.9003 8.28013C37.1094 7.25819 38.6414 6.69751 40.2246 6.69751C41.8078 6.69751 43.3398 7.25819 44.549 8.28013L67.9962 28.3778C68.7405 29.0068 69.3386 29.7907 69.7488 30.6747C70.159 31.5587 70.3713 32.5215 70.3711 33.496V63.6425C70.3711 65.4192 69.6653 67.1232 68.4089 68.3795C67.1526 69.6359 65.4486 70.3417 63.6719 70.3417H16.7773C15.0006 70.3417 13.2966 69.6359 12.0403 68.3795C10.7839 67.1232 10.0781 65.4192 10.0781 63.6425V33.496Z" stroke="#6B6B6B" stroke-width="5" stroke-linecap="round" stroke-linejoin="round"/>
</svg>
